<?xml version="1.0" encoding="UTF-8" standalone="no"?>
<!DOCTYPE svg PUBLIC "-//W3C//DTD SVG 1.1//EN" "http://www.w3.org/Graphics/SVG/1.1/DTD/svg11.dtd">
<svg width="100%" height="100%" viewBox="0 0 2802 1674" version="1.1" xmlns="http://www.w3.org/2000/svg" xmlns:xlink="http://www.w3.org/1999/xlink" xml:space="preserve" xmlns:serif="http://www.serif.com/" style="fill-rule:evenodd;clip-rule:evenodd;stroke-miterlimit:10;">
    <path id="Shape-1" serif:id="Shape 1" d="M132,1352C132,1352 830.406,1072.53 900,648C969.594,223.469 389.379,1627.12 1243,606C2096.62,-415.116 647.625,820.675 907,1449C1166.38,2077.32 1816.3,606.116 1974,239C2131.7,-128.116 1224.91,1143.71 1313,1476C1401.09,1808.29 2110.74,698.304 2321,289C2531.26,-120.304 1360.29,1222.75 1702,1427C2043.71,1631.25 2263.16,595.956 1430,830C596.836,1064.04 3774.2,643.759 2350,104C2129.37,20.383 1476.54,56.196 1051,258C-1124.32,1289.61 730.941,1826.61 2535,1195" style="fill:none;stroke:black;stroke-width:17.25px;"/>
</svg>
